<?xml version="1.0" encoding="UTF-8" standalone="yes"?><svg id="logo" width="512" height="512" version="1.1" xmlns="http://www.w3.org/2000/svg"> <path d="M431.692193816531,136 L223.846096908265,16 L16,136 L16,376 L223.846096908265,496 L431.692193816531,376 L431.692193816531,136 Z" stroke="darkred" stroke-width="16" fill="white" stroke-linecap="round"></path> <text x="223.846096908265" y="160" text-anchor="middle" fill="darkred" stroke="darkred" font-size="64" font-family="Geneva">ReDaMoR</text> <path d="M223.846096908265,240 L223.878753375762,239.34202692753 L224.105773870215,237.399329466267 L224.713710208286,234.264061635461 L225.873775310221,230.084858488135 L227.734877229709,225.059687611949 L230.417468800312,219.426392025151 L234.008438282472,213.451436325202 L238.557228720054,207.417461241496 L244.073329243813,201.610309821698 L250.525231898641,196.306208165383 L257.840894517071,191.759764056016 L265.909695631212,188.193389546313 L274.585813380329,185.788662298491 L283.692908784997,184.680021062667 L293.029946486172,184.951050536124 L302.377944797685,186.633458606006 L311.507413184967,189.708693902282 L320.186210281225,194.112003005974 L328.187540188993,199.738593388144 L335.297799645956,206.451457965516 L341.323993846662,214.090336294268 L346.100454118539,222.481240236155 L349.494615695415,231.445960628093 L351.411647610024,240.810996017137 L351.797768018814,250.415402608448 L350.642125586005,260.117151876129 L347.977179180179,269.797692706521 L343.877562210495,279.364541027093 L338.457472497447,288.751853302227 L331.866681663453,297.919072404675 L324.285307723436,306.847856781411 L315.917539059767,315.537608872177 L306.984535671571,324 L297.71676313367,332.252941668903 L288.346035018095,340.314474537093 L279.097549887695,348.197035535761 L270.182208993209,355.902522038681 L261.789490492219,363.418503020375 L254.081135734099,370.715835892418 L247.185873652738,377.747840703122 L241.195371645456,384.451068109596 L236.161556853907,390.747581924048 L232.095402108431,396.548568967287 L228.967217746427,401.758995707829 L226.708435985706,406.282958930045 L225.214820496714,410.029331188339 L224.35098222643,412.917284013753 L223.956035246541,414.881283724406 L223.850185138346,415.875195208204 L223.842008678185,415.875195208204 L223.73615856999,414.881283724406 L223.341211590101,412.917284013753 L222.477373319817,410.029331188339 L220.983757830824,406.282958930045 L218.724976070103,401.758995707829 L215.5967917081,396.548568967287 L211.530636962624,390.747581924048 L206.496822171075,384.451068109596 L200.506320163793,377.747840703122 L193.611058082432,370.715835892418 L185.902703324312,363.418503020375 L177.509984823322,355.902522038681 L168.594643928836,348.197035535761 L159.346158798436,340.314474537093 L149.97543068286,332.252941668903 L140.707658144959,324 L131.774654756764,315.537608872177 L123.406886093095,306.847856781411 L115.825512153078,297.919072404675 L109.234721319083,288.751853302227 L103.814631606036,279.364541027093 L99.7150146363512,269.797692706521 L97.0500682305255,260.117151876129 L95.894425797717,250.415402608448 L96.2805462065067,240.810996017136 L98.1975781211155,231.445960628093 L101.591739697991,222.481240236155 L106.368199969869,214.090336294268 L112.394394170575,206.451457965516 L119.504653627538,199.738593388144 L127.505983535306,194.112003005974 L136.184780631564,189.708693902282 L145.314249018846,186.633458606006 L154.662247330359,184.951050536124 L163.999285031534,184.680021062667 L173.106380436202,185.788662298491 L181.782498185319,188.193389546313 L189.85129929946,191.759764056016 L197.166961917889,196.306208165384 L203.618864572718,201.610309821698 L209.134965096477,207.417461241496 L213.683755534058,213.451436325202 L217.274725016218,219.426392025151 L219.957316586821,225.059687611949 L221.818418506309,230.084858488135 L222.978483608245,234.264061635461 L223.586419946316,237.399329466267 L223.813440440768,239.34202692753 L223.846096908265,240 Z" stroke="black" stroke-width="16" fill="darkred" stroke-linejoin="round"></path> <circle cx="287.846096908265" cy="248" r="16" stroke="black" fill="black"></circle> <path d="M287.846096908265,248 L383.846096908265,200" stroke="black" stroke-width="16" stroke-linecap="round"></path> <path d="M359.846096908265,192 L399.846096908265,192 L375.846096908265,224 L359.846096908265,192 Z" stroke="black" stroke-width="8" fill="black"></path> <path d="M159.846096908265,312 L103.846096908265,340" stroke="black" stroke-width="16" stroke-linecap="round"></path> <path d="M87.8460969082653,328 L127.846096908265,328 L103.846096908265,360 L87.8460969082653,328 Z" stroke="black" stroke-width="8" fill="black"></path> </svg>